<svg xmlns="http://www.w3.org/2000/svg" xmlns:xlink="http://www.w3.org/1999/xlink" width="288pt" height="157pt" viewBox="0.00 0.00 288.00 156.57">
<g id="graph0" class="graph" transform="scale(0.504411 0.504411) rotate(0) translate(4 306.4)">
<title>G</title>
<polygon fill="white" stroke="none" points="-4,4 -4,-306.4 566.96,-306.4 566.96,4 -4,4"/>
<!-- ff14 -->
<g id="node1" class="node">
<title>ff14</title>
<ellipse fill="none" stroke="black" cx="273.57" cy="-284.4" rx="53.16" ry="18"/>
<text text-anchor="middle" x="273.57" y="-280.2" font-family="Times,serif" font-size="14.00">FF14服务器</text>
</g>
<!-- ACT -->
<g id="node2" class="node">
<title>ACT</title>
<polygon fill="none" stroke="black" stroke-width="3" points="324.01,-213.6 223.12,-213.6 223.12,-177.6 324.01,-177.6 324.01,-213.6"/>
<text text-anchor="middle" x="273.57" y="-191.4" font-family="Times,serif" font-size="14.00">ACT + 解析插件</text>
</g>
<!-- ff14&#45;&gt;ACT -->
<g id="edge1" class="edge">
<title>ff14-&gt;ACT</title>
<path fill="none" stroke="black" d="M273.57,-266.25C273.57,-254.9 273.57,-239.72 273.57,-226.43"/>
<polygon fill="black" stroke="black" points="277.07,-226.43 273.57,-216.43 270.07,-226.43 277.07,-226.43"/>
<text text-anchor="middle" x="299.82" y="-235.8" font-family="Times,serif" font-size="14.00">   网络数据</text>
</g>
<!-- network -->
<g id="node3" class="node">
<title>network</title>
<ellipse fill="none" stroke="black" cx="179.57" cy="-106.8" rx="54.49" ry="18"/>
<text text-anchor="middle" x="179.57" y="-102.6" font-family="Times,serif" font-size="14.00">网络日志文件</text>
</g>
<!-- ACT&#45;&gt;network -->
<g id="edge2" class="edge">
<title>ACT-&gt;network</title>
<path fill="none" stroke="black" d="M221.68,-186.68C205.91,-181.6 190.22,-173.27 180.57,-159.6 175.89,-152.99 174.38,-144.62 174.39,-136.55"/>
<polygon fill="black" stroke="black" points="177.87,-136.93 175.17,-126.68 170.89,-136.37 177.87,-136.93"/>
<text text-anchor="middle" x="205.07" y="-147" font-family="Times,serif" font-size="14.00">  写入本地</text>
</g>
<!-- plugins -->
<g id="node7" class="node">
<title>plugins</title>
<ellipse fill="none" stroke="black" cx="385.57" cy="-106.8" rx="68.98" ry="18"/>
<text text-anchor="middle" x="385.57" y="-102.6" font-family="Times,serif" font-size="14.00">触发器、解析插件</text>
</g>
<!-- ACT&#45;&gt;plugins -->
<g id="edge7" class="edge">
<title>ACT-&gt;plugins</title>
<path fill="none" stroke="black" d="M278.12,-176.24C281.67,-165.28 287.62,-151.79 297.07,-142.8 305.23,-135.03 315.34,-128.91 325.76,-124.12"/>
<polygon fill="black" stroke="black" points="326.95,-127.41 334.84,-120.34 324.26,-120.95 326.95,-127.41"/>
<text text-anchor="middle" x="330.32" y="-147" font-family="Times,serif" font-size="14.00">  解析日志行  </text>
</g>
<!-- ACT&#45;&gt;plugins -->
<g id="edge8" class="edge">
<title>ACT-&gt;plugins</title>
<path fill="none" stroke="black" d="M325.29,-182.43C339.03,-177.22 352.98,-169.87 363.57,-159.6 370.2,-153.17 374.93,-144.42 378.27,-135.94"/>
<polygon fill="black" stroke="black" points="381.54,-137.21 381.4,-126.61 374.9,-134.98 381.54,-137.21"/>
<text text-anchor="middle" x="408.17" y="-147" font-family="Times,serif" font-size="14.00">   网络日志行 </text>
</g>
<!-- network&#45;&gt;ACT -->
<g id="edge5" class="edge">
<title>network-&gt;ACT</title>
<path fill="none" stroke="black" d="M204.17,-123.18C212.58,-128.9 221.81,-135.74 229.57,-142.8 237.77,-150.27 245.88,-159.24 252.86,-167.59"/>
<polygon fill="black" stroke="black" points="249.97,-169.59 258.99,-175.15 255.41,-165.18 249.97,-169.59"/>
<text text-anchor="middle" x="255.74" y="-147" font-family="Times,serif" font-size="14.00">导入</text>
</g>
<!-- fflogs -->
<g id="node4" class="node">
<title>fflogs</title>
<ellipse fill="none" stroke="black" cx="33.57" cy="-18" rx="33.57" ry="18"/>
<text text-anchor="middle" x="33.57" y="-13.8" font-family="Times,serif" font-size="14.00">fflogs</text>
</g>
<!-- network&#45;&gt;fflogs -->
<g id="edge3" class="edge">
<title>network-&gt;fflogs</title>
<path fill="none" stroke="black" d="M153.8,-90.48C128.97,-75.72 91.38,-53.37 64.85,-37.6"/>
<polygon fill="black" stroke="black" points="66.96,-34.78 56.57,-32.68 63.38,-40.8 66.96,-34.78"/>
<text text-anchor="middle" x="130.14" y="-58.2" font-family="Times,serif" font-size="14.00">上传</text>
</g>
<!-- ffxivmon -->
<g id="node5" class="node">
<title>ffxivmon</title>
<ellipse fill="none" stroke="black" cx="132.57" cy="-18" rx="46.98" ry="18"/>
<text text-anchor="middle" x="132.57" y="-13.8" font-family="Times,serif" font-size="14.00">ffxivmon</text>
</g>
<!-- network&#45;&gt;ffxivmon -->
<g id="edge4" class="edge">
<title>network-&gt;ffxivmon</title>
<path fill="none" stroke="black" d="M170.28,-88.65C163.71,-76.52 154.78,-60.02 147.25,-46.12"/>
<polygon fill="black" stroke="black" points="150.39,-44.57 142.55,-37.44 144.24,-47.9 150.39,-44.57"/>
<text text-anchor="middle" x="172.53" y="-58.2" font-family="Times,serif" font-size="14.00"> 导入</text>
</g>
<!-- util -->
<g id="node6" class="node">
<title>util</title>
<ellipse fill="none" stroke="black" cx="267.57" cy="-18" rx="70.3" ry="18"/>
<text text-anchor="middle" x="267.57" y="-13.8" font-family="Times,serif" font-size="14.00">cactbot 工具脚本</text>
</g>
<!-- network&#45;&gt;util -->
<g id="edge6" class="edge">
<title>network-&gt;util</title>
<path fill="none" stroke="black" d="M196.12,-89.47C209.23,-76.55 227.74,-58.28 242.64,-43.59"/>
<polygon fill="black" stroke="black" points="244.75,-46.42 249.41,-36.91 239.83,-41.44 244.75,-46.42"/>
<text text-anchor="middle" x="241.95" y="-58.2" font-family="Times,serif" font-size="14.00">处理</text>
</g>
<!-- opclients -->
<g id="node8" class="node">
<title>opclients</title>
<ellipse fill="none" stroke="black" cx="432.57" cy="-18" rx="76.22" ry="18"/>
<text text-anchor="middle" x="432.57" y="-13.8" font-family="Times,serif" font-size="14.00">悬浮窗和其他客户端</text>
</g>
<!-- plugins&#45;&gt;opclients -->
<g id="edge9" class="edge">
<title>plugins-&gt;opclients</title>
<path fill="none" stroke="black" d="M394.85,-88.65C401.42,-76.52 410.36,-60.02 417.88,-46.12"/>
<polygon fill="black" stroke="black" points="420.9,-47.9 422.58,-37.44 414.74,-44.57 420.9,-47.9"/>
<text text-anchor="middle" x="488.12" y="-58.2" font-family="Times,serif" font-size="14.00">OverlayPlugin WebSocket</text>
</g>
</g>
</svg>